<svg width="32" height="32" viewBox="0 0 32 32" fill="none" xmlns="http://www.w3.org/2000/svg">
<path d="M16 31.9968C14.9441 31.9968 13.973 31.7328 13.0835 31.2048C12.2228 30.7057 11.5284 30.0241 11.0005 29.1633C10.5014 28.2738 10.2502 27.3026 10.2502 26.2467C10.2502 24.914 10.5557 23.802 11.1669 22.914C11.778 22.0245 12.7219 20.983 14.0002 19.7894C14.9441 18.9287 15.4161 18.1095 15.4161 17.3319V16.5816H14.6657C13.805 16.5816 12.6243 17.4423 11.1237 19.1654C9.65184 20.887 7.86001 21.7477 5.74983 21.7477C4.69393 21.7477 3.72283 21.4981 2.83332 20.9973C1.97261 20.4694 1.27827 19.775 0.750325 18.9142C0.251175 18.0263 0 17.0535 0 15.9976C0 14.9417 0.249575 13.9833 0.750325 13.1225C1.27827 12.233 1.97261 11.5386 2.83332 11.0394C3.72283 10.5115 4.69393 10.2475 5.74983 10.2475C7.83282 10.2475 9.61024 11.0954 11.0821 12.7898C12.5539 14.4841 13.749 15.332 14.6657 15.332H15.4161V14.6649C15.4161 13.8873 14.9441 13.0681 14.0002 12.2074L13.0419 11.3322C12.3476 10.6939 11.7092 9.9291 11.1253 9.04115C10.5413 8.1244 10.2502 7.02685 10.2502 5.75011C10.2502 4.69417 10.4998 3.73581 11.0005 2.87505C11.5284 1.9855 12.2228 1.29114 13.0835 0.791962C13.973 0.263989 14.9441 0 16 0C17.0559 0 18.0142 0.263989 18.8749 0.791962C19.7644 1.31994 20.4588 2.01429 20.9579 2.87505C21.4858 3.73581 21.7498 4.69417 21.7498 5.75011C21.7498 7.83321 20.9035 9.61072 19.2093 11.0826C17.515 12.5546 16.6671 13.7497 16.6671 14.6665V15.3336H17.3343C18.2782 15.3336 19.4733 14.4857 20.9179 12.7914C22.3338 11.097 24.1112 10.2491 26.2502 10.2491C27.3061 10.2491 28.2644 10.5131 29.1251 11.041C30.0146 11.5402 30.7089 12.2218 31.2081 13.0825C31.736 13.9433 32 14.9161 32 15.9992C32 17.0823 31.736 18.0263 31.2081 18.9158C30.7089 19.7766 30.0146 20.471 29.1251 20.9989C28.2644 21.4981 27.3061 21.7493 26.2502 21.7493C24.9447 21.7493 23.82 21.4293 22.8761 20.791C21.9594 20.1526 20.9323 19.2214 19.7932 17.9991C18.9325 17.0551 18.1134 16.5832 17.3359 16.5832H16.6687V17.3335C16.6687 18.3607 17.5151 19.5558 19.2109 20.9174C20.9051 22.2789 21.7514 24.0564 21.7514 26.2499C21.7514 27.3058 21.4875 28.277 20.9595 29.1665C20.4588 30.0273 19.7788 30.7073 18.9181 31.208C18.0574 31.736 17.0847 32 16.0016 32L16 31.9968Z" fill="url(#paint0_linear_8326_403)"/>
<defs>
<linearGradient id="paint0_linear_8326_403" x1="5.33947" y1="2.30572" x2="24.7804" y2="27.187" gradientUnits="userSpaceOnUse">
<stop stop-color="#F0B153"/>
<stop offset="1" stop-color="#EFD0C4"/>
</linearGradient>
</defs>
</svg>
