<svg width="16" height="16" viewBox="0 0 16 16" fill="none" xmlns="http://www.w3.org/2000/svg">
<path d="M8.0575 7.97596C8.0575 7.97596 8.97802 5.55513 8.97802 3.84313C8.97802 2.13113 8.56563 0.743164 8.0575 0.743164C7.54936 0.743164 7.13698 2.13113 7.13698 3.84313C7.13698 5.55513 8.0575 7.97596 8.0575 7.97596ZM8.0575 7.97596C8.0575 7.97596 9.14959 10.3274 10.3824 11.5374C11.6151 12.7482 12.9053 13.4432 13.2647 13.0903C13.6241 12.7373 12.9163 11.4694 11.6836 10.2594C10.4509 9.04857 8.0575 7.97596 8.0575 7.97596ZM8.0575 7.97596C8.0575 7.97596 10.5223 7.07185 12.2654 7.07185C14.0084 7.07185 15.4216 7.47688 15.4216 7.97596C15.4216 8.47501 14.0084 8.88004 12.2654 8.88004C10.5223 8.88004 8.0575 7.97596 8.0575 7.97596ZM8.0575 7.97596C8.0575 7.97596 5.6634 9.04857 4.43142 10.2594C3.19865 11.4701 2.49093 12.7373 2.8503 13.0903C3.20966 13.4432 4.5006 12.7482 5.73263 11.5374C6.9654 10.3266 8.0575 7.97596 8.0575 7.97596ZM8.0575 7.97596C8.05971 7.98103 8.97802 10.3989 8.97802 12.1088C8.97802 13.8186 8.56563 15.2086 8.0575 15.2086C7.54936 15.2086 7.13698 13.8208 7.13698 12.1088C7.13698 10.3968 8.0575 7.97596 8.0575 7.97596ZM8.0575 7.97596C8.0575 7.97596 5.5927 7.07185 3.84963 7.07185C2.10655 7.07185 0.693359 7.47688 0.693359 7.97596C0.693359 8.47501 2.10655 8.88004 3.84963 8.88004C5.5927 8.88004 8.0575 7.97596 8.0575 7.97596ZM8.0575 7.97596C8.0575 7.97596 10.4516 6.90331 11.6836 5.69257C12.9163 4.48179 13.6241 3.21459 13.2647 2.86164C12.9053 2.50869 11.6144 3.20374 10.3824 4.41452C9.14959 5.6253 8.0575 7.97596 8.0575 7.97596ZM5.73263 4.41452C6.9654 5.6253 8.0575 7.97596 8.0575 7.97596C8.0575 7.97596 5.6634 6.90331 4.43142 5.69257C3.19865 4.48179 2.49093 3.21459 2.8503 2.86164C3.20966 2.50869 4.5006 3.20374 5.73263 4.41452Z" fill="white"/>
</svg>
