<svg width="15" height="16" viewBox="0 0 15 16" fill="none" xmlns="http://www.w3.org/2000/svg">
<path d="M7.51327 15.2608C7.27979 15.2608 7.08161 15.0947 7.02538 14.8718C6.84503 14.1614 6.49869 13.4059 5.98831 12.6053C5.38329 11.6437 4.52075 10.7527 3.39991 9.93026C2.42529 9.20683 1.45183 8.71366 0.477208 8.45068C0.246447 8.38802 0.078125 8.18767 0.078125 7.95236C0.078125 7.71708 0.239852 7.52329 0.465182 7.4599C1.42041 7.19183 2.34074 6.75689 3.22577 6.15518C4.24345 5.45944 5.09241 4.62459 5.77539 3.65057C6.37924 2.78295 6.79384 1.92478 7.01839 1.07678C7.07773 0.854608 7.27669 0.691406 7.51017 0.691406C7.74403 0.691406 7.94725 0.858263 8.00504 1.08337C8.13458 1.59183 8.3378 2.11274 8.61394 2.64527C8.96182 3.3031 9.40589 3.93544 9.94653 4.54226C10.5 5.13674 11.1186 5.67434 11.8008 6.15518C12.6924 6.77586 13.5991 7.21221 14.5202 7.46356C14.7467 7.52546 14.9104 7.72291 14.9104 7.95312C14.9104 8.18329 14.7421 8.38657 14.5121 8.44847C13.9276 8.60584 13.3273 8.85937 12.7087 9.20905C11.9617 9.63884 11.2659 10.151 10.6221 10.7455C9.97834 11.3275 9.45049 11.9409 9.039 12.5857C8.52706 13.3877 8.18073 14.1492 8.00038 14.8703C7.94492 15.0939 7.74674 15.2608 7.51249 15.2608H7.51327Z" fill="white"/>
</svg>
