<svg width="16" height="16" viewBox="0 0 16 16" fill="none" xmlns="http://www.w3.org/2000/svg">
<path d="M4.53542 7.97621C6.56883 7.97621 8.2175 6.35678 8.2175 4.35979C8.2175 6.35678 9.86618 7.97621 11.8996 7.97621C9.86618 7.97621 8.2175 9.59564 8.2175 11.5926C8.2175 9.59564 6.56883 7.97621 4.53542 7.97621ZM4.53542 7.97621C2.5024 7.97621 0.85334 9.59564 0.85334 11.5926C0.85334 13.5896 2.5024 15.2089 4.53542 15.2089C6.56883 15.2089 8.2175 13.5896 8.2175 11.5926C8.2175 13.5896 9.86618 15.2089 11.8996 15.2089C13.933 15.2089 15.5817 13.5896 15.5817 11.5926C15.5817 9.59564 13.933 7.97621 11.8996 7.97621C13.933 7.97621 15.5817 6.35678 15.5817 4.35979C15.5817 2.36284 13.933 0.743408 11.8996 0.743408C9.86618 0.743408 8.2175 2.36284 8.2175 4.35979C8.2175 2.36284 6.56883 0.743408 4.53542 0.743408C2.5024 0.743408 0.85334 2.36284 0.85334 4.35979C0.85334 6.35678 2.5024 7.97621 4.53542 7.97621Z" fill="white"/>
</svg>
