<svg width="32" height="32" viewBox="0 0 32 32" fill="none" xmlns="http://www.w3.org/2000/svg">
<path d="M17.1433 0H14.8567V10.12L11.0662 0.735996L8.94605 1.592L12.8358 11.2192L5.49307 3.8768L3.87699 5.4928L10.9141 12.5296L1.79529 8.5456L0.880044 10.64L10.5301 14.856H0V17.1424H10.5301L0.880044 21.3584L1.79529 23.4528L10.9141 19.4688L3.87699 26.5056L5.49307 28.1216L12.8358 20.7808L8.94605 30.408L11.0662 31.264L14.8567 21.88V32H17.1433V21.88L20.9338 31.264L23.0523 30.408L19.1626 20.7808L26.5053 28.1216L28.1214 26.5056L21.0843 19.4688L30.2031 23.4528L31.1184 21.3584L21.4699 17.1424H32V14.856H21.4699L31.12 10.64L30.2047 8.5456L21.0859 12.5296L28.123 5.4928L26.5069 3.8768L19.1642 11.2192L23.0539 1.592L20.9354 0.735996L17.1449 10.12V0H17.1433Z" fill="url(#paint0_linear_8326_404)"/>
<defs>
<linearGradient id="paint0_linear_8326_404" x1="5.33947" y1="2.30572" x2="24.7804" y2="27.187" gradientUnits="userSpaceOnUse">
<stop stop-color="#F0B153"/>
<stop offset="1" stop-color="#EFD0C4"/>
</linearGradient>
</defs>
</svg>
