<svg width="19" height="16" viewBox="0 0 19 16" fill="none" xmlns="http://www.w3.org/2000/svg">
<path d="M10.0979 12.0015C9.80383 12.2898 9.51554 12.5695 9.22725 12.852C8.77464 13.296 8.32202 13.7399 7.87229 14.1868C7.74545 14.3136 7.60995 14.4088 7.42545 14.3194C7.24671 14.2329 7.24383 14.0715 7.25824 13.9043C7.34473 12.7021 7.42545 11.497 7.52058 10.2949C7.52635 10.2026 7.59842 10.096 7.66761 10.0297C9.15229 8.65741 10.6427 7.28804 12.1303 5.91867C13.0528 5.06822 13.9754 4.22065 14.8979 3.3702C14.9411 3.32984 14.9988 3.29236 15.0247 3.24047C15.0478 3.19434 15.0593 3.10786 15.0334 3.08191C14.9959 3.04443 14.9181 3.0329 14.8633 3.03867C14.8143 3.04443 14.7682 3.08768 14.722 3.11651C11.5249 5.0711 8.33067 7.02281 5.13644 8.98029C5.00959 9.05813 4.90293 9.07254 4.76166 9.02353C3.4759 8.57957 2.19013 8.14425 0.901483 7.70605C0.546888 7.58497 0.38833 7.40623 0.385447 7.11795C0.382564 6.83542 0.532474 6.65092 0.869772 6.52119C5.26329 4.83759 9.6568 3.15687 14.0503 1.47326C15.0939 1.07254 16.1375 0.674703 17.1811 0.276865C17.5473 0.138487 17.8874 0.196144 18.1815 0.455604C18.4669 0.709298 18.5707 1.0293 18.4871 1.40407C18.3977 1.81921 18.3083 2.23434 18.2161 2.6466C17.3454 6.60479 16.4719 10.563 15.6013 14.5183C15.584 14.5961 15.5696 14.6769 15.5465 14.7547C15.3851 15.3169 14.771 15.5216 14.2867 15.1583C13.5891 14.6394 12.9 14.1089 12.2053 13.5843C11.5595 13.097 10.9166 12.607 10.2709 12.1197C10.219 12.0794 10.1642 12.0419 10.095 11.9958L10.0979 12.0015Z" fill="#0267FF"/>
</svg>
