<svg width="26" height="15" viewBox="0 0 26 15" fill="none" xmlns="http://www.w3.org/2000/svg">
<path d="M25.5463 14.1296C25.3906 14.5966 25.1657 14.7869 24.6584 14.8013C23.5542 14.8359 22.4472 14.8243 21.343 14.8878C20.383 14.9454 19.6248 14.5764 18.9791 13.9278C18.4544 13.3973 17.9758 12.8265 17.4598 12.2874C17.2724 12.0914 17.062 11.9155 16.8371 11.7627C16.4537 11.5033 16.1769 11.5523 15.8627 11.8953C15.5052 12.2816 15.4101 12.7688 15.3524 13.2647C15.3236 13.5097 15.3236 13.7606 15.3092 14.0085C15.2774 14.4842 15.0439 14.7667 14.5711 14.7984C14.0205 14.8388 13.467 14.8388 12.9135 14.8243C12.458 14.8128 11.9996 14.7869 11.5528 14.7119C10.2238 14.4842 9.1052 13.8038 8.027 13.0398C7.02087 12.3306 6.27709 11.3793 5.54484 10.4135C3.68538 7.95155 2.26988 5.23875 1.02736 2.42506C0.782313 1.86866 0.963935 1.55731 1.57511 1.51118C2.02195 1.47659 2.47168 1.48812 2.92141 1.48524C3.63348 1.47947 4.34844 1.47659 5.06051 1.47659C5.5852 1.47659 5.93691 1.70722 6.17042 2.19443C6.79601 3.49173 7.43601 4.78037 8.09907 6.05749C8.37871 6.59659 8.73619 7.09821 9.22628 7.47875C9.34448 7.571 9.47997 7.65173 9.61835 7.70074C9.89799 7.79875 10.1113 7.70073 10.2555 7.44704C10.4919 7.02902 10.512 6.55911 10.5639 6.10074C10.685 5.04272 10.6706 3.99335 10.4486 2.94686C10.3218 2.34434 9.94412 2.02722 9.36754 1.90326C9.2724 1.88308 9.1888 1.82542 9.09655 1.78506C9.14556 1.69569 9.18303 1.59767 9.24934 1.52272C9.49727 1.24308 9.8115 1.0701 10.1805 1.01533C11.5672 0.810645 12.9567 0.778933 14.3434 1.00091C15.0266 1.11046 15.2746 1.3411 15.3409 2.13677C15.3928 2.76524 15.338 3.40236 15.3322 4.03371C15.3236 4.86686 15.3034 5.70001 15.312 6.53317C15.312 6.77533 15.3668 7.03191 15.4562 7.25677C15.6436 7.74398 16.0212 7.81028 16.4162 7.47875C17.062 6.93965 17.4973 6.23623 17.9412 5.54434C18.6158 4.4892 19.1693 3.37065 19.6335 2.20884C19.6854 2.07623 19.7488 1.94362 19.8238 1.82254C19.9333 1.64092 20.1005 1.53425 20.3196 1.53137C21.7784 1.51407 23.2371 1.48812 24.6958 1.48812C25.0418 1.48812 25.4079 1.54866 25.5492 1.9638V2.3011C25.3935 2.66722 25.2638 3.04488 25.0793 3.39371C24.4652 4.54974 23.6378 5.56164 22.8565 6.60524C22.4558 7.14146 22.0551 7.68344 21.6976 8.25137C21.4238 8.6838 21.4929 9.10182 21.8274 9.48812C21.9888 9.67551 22.1647 9.85137 22.3405 10.0272C23.0007 10.6903 23.6897 11.3274 24.3153 12.0193C24.8573 12.6189 25.4194 13.2243 25.5492 14.0806V14.1296H25.5463Z" fill="#0267FF"/>
</svg>
