<svg width="72" height="64" viewBox="0 0 72 64" fill="none" xmlns="http://www.w3.org/2000/svg">
<path d="M72 32.1002C72 28.6002 68.7182 25.9002 64.0442 25.9002C61.7569 25.9002 58.0773 26.8002 52.9061 28.5002C47.7348 30.2002 42.9613 31.1002 38.6851 31.1002H37.3923C40.1768 26.7002 42.4641 23.7002 44.0552 22.3002C47.337 19.4002 56.6851 11.8002 56.6851 5.90024C56.6851 2.40024 54.1989 0.000244141 51.2155 0.000244141C49.5249 0.000244141 48.0331 0.700245 46.5414 2.10025C43.6575 4.90025 42.2652 11.1002 40.674 18.4002C39.8784 22.1002 38.3867 26.0002 36 30.3002C33.6133 25.9002 32.0221 21.9002 31.2265 18.1002C30.4309 14.4002 29.6354 11.1002 28.7403 8.30024C26.8508 2.50025 23.9669 0.000244141 20.5856 0.000244141C17.5028 0.000244141 15.3149 2.40024 15.3149 5.60024C15.3149 7.60024 15.9116 9.50024 17.2044 11.4002C18.3978 13.2002 21.5801 16.5002 26.7514 21.2002C31.4254 26.1002 31.0276 25.4002 34.6077 31.1002C29.8343 31.1002 24.7624 30.2002 19.4917 28.4002C14.221 26.6002 10.3425 25.7002 7.9558 25.7002C3.18232 25.7002 0 28.4002 0 31.9002C0 35.5002 3.38121 38.1002 7.9558 38.1002C11.4365 38.1002 18.895 35.6002 23.6685 34.0002C26.0552 33.2002 29.337 32.9002 33.3149 32.9002H34.6077C32.221 36.9002 29.7348 40.0002 27.2486 42.2002C22.2762 46.6002 15.3149 52.8002 15.3149 58.1002C15.3149 61.6002 17.6022 64.0002 20.5856 64.0002C22.2762 64.0002 23.8674 63.3002 25.3591 62.0002C28.3425 59.4002 29.6354 53.4002 31.2265 45.9002C32.0221 42.1002 33.6133 38.0002 36 33.7002C38.3867 37.9002 39.9779 41.9002 40.674 45.5002C41.3702 49.2002 42.2652 52.5002 43.0608 55.4002C44.6519 61.3002 47.9337 64.0002 51.2155 64.0002C54.1989 64.0002 56.6851 61.4002 56.6851 58.2002C56.6851 53.0002 51.2155 48.1002 45.6464 43.1002C42.8619 40.6002 40.0773 37.3002 37.3923 32.9002C42.5635 32.9002 47.5359 33.8002 52.7072 35.6002C57.779 37.4002 61.558 38.3002 64.0442 38.3002C68.5193 38.3002 72 35.8002 72 32.1002Z" fill="black"/>
</svg>
